<svg xmlns="http://www.w3.org/2000/svg" style="display: none;"><symbol id="tick" viewBox="0 0 512 512"><title>tick</title><path d="M504.502,75.496c-9.997-9.998-26.205-9.998-36.204,0L161.594,382.203L43.702,264.311c-9.997-9.998-26.205-9.997-36.204,0 c-9.998,9.997-9.998,26.205,0,36.203l135.994,135.992c9.994,9.997,26.214,9.99,36.204,0L504.502,111.7 C514.5,101.703,514.499,85.494,504.502,75.496z"/></symbol><symbol id="subtracting-button" viewBox="0 0 305.002 305.002"><title>subtracting-button</title><g> <path d="M152.502,305.001C68.411,305.001,0,236.59,0,152.501s68.411-152.5,152.502-152.5c84.089,0,152.5,68.411,152.5,152.5 S236.591,305.001,152.502,305.001z M152.502,25.001C82.197,25.001,25,82.197,25,152.501c0,70.305,57.197,127.5,127.502,127.5 c70.304,0,127.5-57.195,127.5-127.5C280.002,82.197,222.806,25.001,152.502,25.001z"/> </g><g> <path d="M225.998,165.001H79.006c-6.903,0-12.5-5.598-12.5-12.5c0-6.903,5.597-12.5,12.5-12.5h146.992 c6.903,0,12.5,5.597,12.5,12.5C238.498,159.403,232.901,165.001,225.998,165.001z"/> </g></symbol><symbol id="user" viewBox="0 0 512 512"><title>user</title><path d="M437.02,330.98c-27.883-27.882-61.071-48.523-97.281-61.018C378.521,243.251,404,198.548,404,148 C404,66.393,337.607,0,256,0S108,66.393,108,148c0,50.548,25.479,95.251,64.262,121.962 c-36.21,12.495-69.398,33.136-97.281,61.018C26.629,379.333,0,443.62,0,512h40c0-119.103,96.897-216,216-216s216,96.897,216,216 h40C512,443.62,485.371,379.333,437.02,330.98z M256,256c-59.551,0-108-48.448-108-108S196.449,40,256,40 c59.551,0,108,48.448,108,108S315.551,256,256,256z"/></symbol><symbol id="bookmark" viewBox="0 0 512 512"><title>bookmark</title><path d="M416.667,0H95.333c-8.284,0-15,6.716-15,15v482c0,6.067,3.655,11.536,9.26,13.858c1.856,0.769,3.805,1.142,5.737,1.142 c3.904,0,7.74-1.523,10.61-4.394l150.063-150.061L406.06,507.606c4.29,4.29,10.742,5.573,16.347,3.252 c5.605-2.322,9.26-7.791,9.26-13.858V15C431.667,6.716,424.951,0,416.667,0z M256.002,321.332c-3.978,0-7.793,1.58-10.606,4.394 L110.333,460.787V30h291.333v430.785L266.609,325.726C263.796,322.912,259.981,321.332,256.002,321.332z"/></symbol><symbol id="loupe" viewBox="0 0 512 512"><title>loupe</title><g> <g> <path d="M225.474,0C101.151,0,0,101.151,0,225.474c0,124.33,101.151,225.474,225.474,225.474 c124.33,0,225.474-101.144,225.474-225.474C450.948,101.151,349.804,0,225.474,0z M225.474,409.323 c-101.373,0-183.848-82.475-183.848-183.848S124.101,41.626,225.474,41.626s183.848,82.475,183.848,183.848 S326.847,409.323,225.474,409.323z"/> </g> </g><g> <g> <path d="M505.902,476.472L386.574,357.144c-8.131-8.131-21.299-8.131-29.43,0c-8.131,8.124-8.131,21.306,0,29.43l119.328,119.328 c4.065,4.065,9.387,6.098,14.715,6.098c5.321,0,10.649-2.033,14.715-6.098C514.033,497.778,514.033,484.596,505.902,476.472z"/> </g> </g></symbol><symbol id="clock" viewBox="0 0 443.294 443.294"><title>clock</title><path d="m221.647 0c-122.214 0-221.647 99.433-221.647 221.647s99.433 221.647 221.647 221.647 221.647-99.433 221.647-221.647-99.433-221.647-221.647-221.647zm0 415.588c-106.941 0-193.941-87-193.941-193.941s87-193.941 193.941-193.941 193.941 87 193.941 193.941-87 193.941-193.941 193.941z"/><path d="m235.5 83.118h-27.706v144.265l87.176 87.176 19.589-19.589-79.059-79.059z"/></symbol><symbol id="plus" viewBox="0 0 512 512"><title>plus</title><path d="m256 512c-141.164062 0-256-114.835938-256-256s114.835938-256 256-256 256 114.835938 256 256-114.835938 256-256 256zm0-480c-123.519531 0-224 100.480469-224 224s100.480469 224 224 224 224-100.480469 224-224-100.480469-224-224-224zm0 0"/><path d="m368 272h-224c-8.832031 0-16-7.167969-16-16s7.167969-16 16-16h224c8.832031 0 16 7.167969 16 16s-7.167969 16-16 16zm0 0"/><path d="m256 384c-8.832031 0-16-7.167969-16-16v-224c0-8.832031 7.167969-16 16-16s16 7.167969 16 16v224c0 8.832031-7.167969 16-16 16zm0 0"/></symbol><symbol id="cloud-computing" viewBox="0 0 489.4 489.4"><title>cloud-computing</title><path d="M382.4,422.75h-79.1H282h-4.6v-106.1h34.7c8.8,0,14-10,8.8-17.2l-67.5-93.4c-4.3-6-13.2-6-17.5,0l-67.5,93.4 c-5.2,7.2-0.1,17.2,8.8,17.2h34.7v106.1h-4.6H186H94.3c-52.5-2.9-94.3-52-94.3-105.2c0-36.7,19.9-68.7,49.4-86 c-2.7-7.3-4.1-15.1-4.1-23.3c0-37.5,30.3-67.8,67.8-67.8c8.1,0,15.9,1.4,23.2,4.1c21.7-46,68.5-77.9,122.9-77.9 c70.4,0.1,128.4,54,135,122.7c54.1,9.3,95.2,59.4,95.2,116.1C489.4,366.05,442.2,418.55,382.4,422.75z"/></symbol></svg>